<?xml version="1.0" encoding="utf-8"?>
<!-- Generator: Adobe Illustrator 18.1.1, SVG Export Plug-In . SVG Version: 6.00 Build 0)  -->
<svg version="1.1" id="Layer_1" xmlns="http://www.w3.org/2000/svg" xmlns:xlink="http://www.w3.org/1999/xlink" x="0px" y="0px"
	 viewBox="0 0 24 24" enable-background="new 0 0 24 24" xml:space="preserve">
<path fill="#231F20" d="M12,0C5.4,0,0,5.4,0,12s5.4,12,12,12s12-5.4,12-12S18.6,0,12,0z M19.3,10.2c0,0-0.5,0.8-1.7,1.2
	c0,0.3,0.1,0.6,0.1,0.9c0,3.5-2.9,6.2-6.5,6.2c-3.6,0-6.5-2.8-6.5-6.2c0-4.1,4-6.9,7.8-6.2v3.7c-4.2-1.2-5.3,5.1-1.2,5.1
	c2.7,0,3.2-2.5,3.2-2.5V6.7c2.6,1.3,2.8,2.2,4.9,2.1c0,0,0.3-0.1,0.3,0.5C19.7,9.6,19.6,9.9,19.3,10.2z"/>
</svg>
