<?xml version="1.0" encoding="utf-8"?>
<!-- Generator: Adobe Illustrator 18.1.1, SVG Export Plug-In . SVG Version: 6.00 Build 0)  -->
<!DOCTYPE svg PUBLIC "-//W3C//DTD SVG 1.1//EN" "http://www.w3.org/Graphics/SVG/1.1/DTD/svg11.dtd">
<svg version="1.1" id="Layer_1" xmlns="http://www.w3.org/2000/svg" xmlns:xlink="http://www.w3.org/1999/xlink" x="0px" y="0px"
	 viewBox="-618 385 42 32" enable-background="new -618 385 42 32" xml:space="preserve">
<g>
	<line opacity="0.3" fill="none" stroke="#449FDB" enable-background="new    " x1="-618" y1="1393" x2="726" y2="1393"/>
</g>
<path fill="#506274" d="M-581,414c1.2,0,2-0.8,2-2v-26.5c0-0.3-0.2-0.5-0.5-0.5s-0.5,0.2-0.5,0.5V412c0,0.9-0.6,1-1,1
	c-0.1,0-1,0-1-1v-26.5c0-0.3-0.2-0.5-0.5-0.5s-0.5,0.2-0.5,0.5V412C-583,413.3-582,414-581,414z M-613.5,406h10
	c0.3,0,0.5-0.2,0.5-0.5v-9c0-0.3-0.2-0.5-0.5-0.5h-10c-0.3,0-0.5,0.2-0.5,0.5v9C-614,405.8-613.8,406-613.5,406z M-613,397h9v8h-9
	V397z M-613.5,393h24c0.3,0,0.5-0.2,0.5-0.5v-4c0-0.3-0.2-0.5-0.5-0.5h-24c-0.3,0-0.5,0.2-0.5,0.5v4C-614,392.8-613.8,393-613.5,393
	z M-613,389h23v3h-23V389z M-589.5,396h-10c-0.3,0-0.5,0.2-0.5,0.5s0.2,0.5,0.5,0.5h10c0.3,0,0.5-0.2,0.5-0.5S-589.2,396-589.5,396z
	 M-589.5,399h-10c-0.3,0-0.5,0.2-0.5,0.5s0.2,0.5,0.5,0.5h10c0.3,0,0.5-0.2,0.5-0.5S-589.2,399-589.5,399z M-589.5,402h-10
	c-0.3,0-0.5,0.2-0.5,0.5s0.2,0.5,0.5,0.5h10c0.3,0,0.5-0.2,0.5-0.5S-589.2,402-589.5,402z M-589.5,405h-10c-0.3,0-0.5,0.2-0.5,0.5
	s0.2,0.5,0.5,0.5h10c0.3,0,0.5-0.2,0.5-0.5S-589.2,405-589.5,405z M-589.5,408h-10c-0.3,0-0.5,0.2-0.5,0.5s0.2,0.5,0.5,0.5h10
	c0.3,0,0.5-0.2,0.5-0.5S-589.2,408-589.5,408z M-613.5,409h10c0.3,0,0.5-0.2,0.5-0.5s-0.2-0.5-0.5-0.5h-10c-0.3,0-0.5,0.2-0.5,0.5
	S-613.8,409-613.5,409z M-589.5,411h-10c-0.3,0-0.5,0.2-0.5,0.5s0.2,0.5,0.5,0.5h10c0.3,0,0.5-0.2,0.5-0.5S-589.2,411-589.5,411z
	 M-613.5,412h10c0.3,0,0.5-0.2,0.5-0.5s-0.2-0.5-0.5-0.5h-10c-0.3,0-0.5,0.2-0.5,0.5S-613.8,412-613.5,412z M-613,416.9h32
	c0,0,0,0,0,0c0,0,0,0,0,0c2.7,0,4.9-2.2,4.9-4.9v-26.5c0-0.2-0.2-0.4-0.4-0.4c-0.2,0-0.4,0.2-0.4,0.4V412c0,2.2-1.8,4.1-4.1,4.1
	c-2.2,0-4.1-1.8-4.1-4.1v-26.5c0-0.2-0.2-0.4-0.4-0.4h-32c-0.2,0-0.4,0.2-0.4,0.4V412C-617.9,414.7-615.7,416.9-613,416.9z
	 M-617.1,385.9h31.1V412c0,0.3,0,0.6,0.1,0.9c0,0.1,0,0.1,0,0.2c0.1,0.3,0.1,0.5,0.3,0.8c0,0,0,0.1,0.1,0.1c0.1,0.2,0.2,0.5,0.4,0.7
	c0,0,0,0.1,0,0.1c0.2,0.2,0.3,0.4,0.5,0.6c0,0,0.1,0.1,0.1,0.1c0.2,0.2,0.4,0.4,0.6,0.5H-613c-2.2,0-4.1-1.8-4.1-4.1
	C-617.1,412-617.1,385.9-617.1,385.9z"/>
</svg>
