<?xml version="1.0" encoding="utf-8"?>
<!-- Generator: Adobe Illustrator 18.1.1, SVG Export Plug-In . SVG Version: 6.00 Build 0)  -->
<svg version="1.1" id="Layer_1" xmlns="http://www.w3.org/2000/svg" xmlns:xlink="http://www.w3.org/1999/xlink" x="0px" y="0px"
	 viewBox="0 0 24 24" enable-background="new 0 0 24 24" xml:space="preserve">
<path fill="#231F20" d="M12,0C5.4,0,0,5.4,0,12s5.4,12,12,12s12-5.4,12-12S18.6,0,12,0z M14.5,19.5c-0.4,0.1-0.5-0.2-0.5-0.4
	c0-0.3,0-1.2,0-2.2c0-0.7-0.3-1.2-0.5-1.5c1.8-0.2,3.7-0.9,3.7-3.9c0-0.9-0.3-1.6-0.8-2.1c0.1-0.2,0.4-1-0.1-2.1
	c0,0-0.7-0.2-2.2,0.8c-0.6-0.2-1.3-0.3-2-0.3c-0.7,0-1.4,0.1-2,0.3C8.5,7,7.8,7.2,7.8,7.2C7.4,8.3,7.6,9.1,7.7,9.3
	c-0.5,0.6-0.8,1.3-0.8,2.1c0,3.1,1.9,3.8,3.6,4c-0.2,0.2-0.4,0.6-0.5,1.1c-0.5,0.2-1.6,0.6-2.3-0.7c0,0-0.4-0.8-1.2-0.8
	c0,0-0.8,0-0.1,0.5c0,0,0.5,0.2,0.9,1.2c0,0,0.5,1.5,2.7,1.1c0,0.7,0,1.2,0,1.4c0,0.2-0.1,0.4-0.5,0.4C6.3,18.4,4,15.4,4,11.9
	c0-4.4,3.6-8,8-8s8,3.6,8,8C20,15.4,17.7,18.4,14.5,19.5z"/>
</svg>
