<?xml version="1.0" encoding="utf-8"?>
<!-- Generator: Adobe Illustrator 18.1.1, SVG Export Plug-In . SVG Version: 6.00 Build 0)  -->
<!DOCTYPE svg PUBLIC "-//W3C//DTD SVG 1.1//EN" "http://www.w3.org/Graphics/SVG/1.1/DTD/svg11.dtd">
<svg version="1.1" id="Layer_1" xmlns="http://www.w3.org/2000/svg" xmlns:xlink="http://www.w3.org/1999/xlink" x="0px" y="0px"
	 viewBox="-621 385 37 32" enable-background="new -621 385 37 32" xml:space="preserve">
<g>
	<line opacity="0.3" fill="none" stroke="#449FDB" enable-background="new    " x1="-621" y1="1393" x2="723" y2="1393"/>
</g>
<path fill="#506274" d="M-613.5,385h-6c-0.9,0-1.5,0.6-1.5,1.5v29c0,0.9,0.6,1.5,1.5,1.5h34c0.9,0,1.5-0.6,1.5-1.5v-29
	c0-0.9-0.6-1.5-1.5-1.5H-613.5z M-620,415.5v-29c0-0.3,0.2-0.5,0.5-0.5h5.5v30h-5.5C-619.8,416-620,415.8-620,415.5z M-613,416v-30
	h21v30H-613z M-585,386.5v29c0,0.3-0.2,0.5-0.5,0.5h-5.5v-30h5.5C-585.2,386-585,386.2-585,386.5z M-606.2,395.1
	c-0.2-0.1-0.4-0.1-0.5,0c-0.2,0.1-0.3,0.3-0.3,0.4v12c0,0.2,0.1,0.4,0.3,0.4c0.1,0,0.2,0.1,0.2,0.1c0.1,0,0.2,0,0.3-0.1l9-6
	c0.1-0.1,0.2-0.2,0.2-0.4s-0.1-0.3-0.2-0.4L-606.2,395.1z M-606,406.6v-10.1l7.6,5.1C-598.4,401.5-606,406.6-606,406.6z M-616,393
	h-2c-0.3,0-0.5,0.2-0.5,0.5s0.2,0.5,0.5,0.5h2c0.3,0,0.5-0.2,0.5-0.5S-615.7,393-616,393z M-618,390h2c0.3,0,0.5-0.2,0.5-0.5
	s-0.2-0.5-0.5-0.5h-2c-0.3,0-0.5,0.2-0.5,0.5S-618.3,390-618,390z M-616,397h-2c-0.3,0-0.5,0.2-0.5,0.5s0.2,0.5,0.5,0.5h2
	c0.3,0,0.5-0.2,0.5-0.5S-615.7,397-616,397z M-616,401h-2c-0.3,0-0.5,0.2-0.5,0.5s0.2,0.5,0.5,0.5h2c0.3,0,0.5-0.2,0.5-0.5
	S-615.7,401-616,401z M-616,405h-2c-0.3,0-0.5,0.2-0.5,0.5s0.2,0.5,0.5,0.5h2c0.3,0,0.5-0.2,0.5-0.5S-615.7,405-616,405z M-616,409
	h-2c-0.3,0-0.5,0.2-0.5,0.5s0.2,0.5,0.5,0.5h2c0.3,0,0.5-0.2,0.5-0.5S-615.7,409-616,409z M-616,413h-2c-0.3,0-0.5,0.2-0.5,0.5
	s0.2,0.5,0.5,0.5h2c0.3,0,0.5-0.2,0.5-0.5S-615.7,413-616,413z M-589,394h2c0.3,0,0.5-0.2,0.5-0.5s-0.2-0.5-0.5-0.5h-2
	c-0.3,0-0.5,0.2-0.5,0.5S-589.3,394-589,394z M-589,390h2c0.3,0,0.5-0.2,0.5-0.5s-0.2-0.5-0.5-0.5h-2c-0.3,0-0.5,0.2-0.5,0.5
	S-589.3,390-589,390z M-589,398h2c0.3,0,0.5-0.2,0.5-0.5s-0.2-0.5-0.5-0.5h-2c-0.3,0-0.5,0.2-0.5,0.5S-589.3,398-589,398z M-589,402
	h2c0.3,0,0.5-0.2,0.5-0.5s-0.2-0.5-0.5-0.5h-2c-0.3,0-0.5,0.2-0.5,0.5S-589.3,402-589,402z M-589,406h2c0.3,0,0.5-0.2,0.5-0.5
	s-0.2-0.5-0.5-0.5h-2c-0.3,0-0.5,0.2-0.5,0.5S-589.3,406-589,406z M-589,410h2c0.3,0,0.5-0.2,0.5-0.5s-0.2-0.5-0.5-0.5h-2
	c-0.3,0-0.5,0.2-0.5,0.5S-589.3,410-589,410z M-587,413h-2c-0.3,0-0.5,0.2-0.5,0.5s0.2,0.5,0.5,0.5h2c0.3,0,0.5-0.2,0.5-0.5
	S-586.7,413-587,413z"/>
</svg>
