<?xml version="1.0" encoding="utf-8"?>
<!-- Generator: Adobe Illustrator 18.1.1, SVG Export Plug-In . SVG Version: 6.00 Build 0)  -->
<svg version="1.1" id="Layer_1" xmlns="http://www.w3.org/2000/svg" xmlns:xlink="http://www.w3.org/1999/xlink" x="0px" y="0px"
	 viewBox="0 0 24 24" enable-background="new 0 0 24 24" xml:space="preserve">
<path fill="#231F20" d="M12,0C5.4,0,0,5.4,0,12s5.4,12,12,12s12-5.4,12-12S18.6,0,12,0z M12,5.5c1.7,0,3.3,0.7,4.5,1.8
	c-1.1,1.1-2.4,1.9-3.8,2.5c-0.9-1.4-2-2.7-3.3-3.8C10.2,5.7,11.1,5.5,12,5.5z M8.4,6.6l0.2,0.1c1.3,1,2.4,2.2,3.2,3.5
	c-1.4,0.5-2.8,0.7-4.3,0.7c-0.6,0-1.2,0-1.9-0.1C5.9,9,7,7.5,8.4,6.6z M5.5,11.8c0.7,0.1,1.3,0.1,2,0.1c1.7,0,3.3-0.3,4.8-0.9
	c0.2,0.4,0.4,0.8,0.5,1.2c-2.3,0.6-4.4,1.8-6.2,3.4C5.9,14.6,5.5,13.3,5.5,11.8z M13.7,18.3c-0.5,0.1-1.1,0.2-1.7,0.2
	c-1.9,0-3.5-0.8-4.7-2l0,0c1.7-1.6,3.7-2.7,5.9-3.2c0.4,1.2,0.6,2.5,0.6,3.9C13.8,17.6,13.7,17.9,13.7,18.3z M14.7,17.9
	c0-0.3,0-0.5,0-0.8c0-1.4-0.2-2.8-0.6-4.1c0.7-0.1,1.5-0.2,2.2-0.2c0.6,0,1.3,0.1,2.1,0.2l0,0C18.1,15.2,16.7,17,14.7,17.9z
	 M16.3,11.8c-0.9,0-1.7,0.1-2.5,0.2c-0.2-0.5-0.4-0.9-0.6-1.3c1.4-0.6,2.8-1.5,3.9-2.6c0.8,1.1,1.3,2.4,1.3,3.9
	C18.1,11.9,17.2,11.8,16.3,11.8z"/>
</svg>
